<svg xmlns="http://www.w3.org/2000/svg" style="display: none;">

  <symbol id="icon-home-house-streamline" viewBox="0 0 512 512">
    <path d="m437 288c-6 0-10 5-10 11l0 192l-107 0l0-139l-128 0l0 139l-107 0l0-203c0-6-4-11-10-11c-6 0-11 5-11 11l0 224l149 0l0-139l86 0l0 139l149 0l0-213c0-6-5-11-11-11z m72-18l-253-242l-253 242c-4 4-4 10 0 15c4 4 11 4 15 0l238-228l238 228c2 2 5 3 7 3c3 0 6-1 8-3c4-5 4-11 0-15z m-168-185l64 0l0 64c0 6 5 11 11 11c6 0 11-5 11-11l0-85l-86 0c-6 0-10 5-10 11c0 6 4 10 10 10z"/>
  </symbol>

  <symbol id="icon-search" viewBox="0 0 512 512">
    <path d="m450 395c10 12 11 22 3 32c0 0-24 24-24 24c-12 10-24 10-35 0c0 0-97-98-97-98c-25 15-52 22-80 22c-44 0-82-16-114-49c-33-32-49-70-49-114c0-44 16-81 46-112c31-31 68-47 112-47c44 0 82 16 115 49c32 32 49 70 49 114c0 30-8 58-24 83c0 0 98 96 98 96m-348-183c0 30 12 57 35 80c23 23 50 35 80 35c30 0 56-11 77-33c22-21 33-47 33-78c0-30-12-56-35-79c-23-23-50-35-80-35c-30 0-56 11-77 33c-22 21-33 47-33 77"/>
  </symbol>

  <symbol id="icon-bed" viewBox="0 0 512 512">
    <path d="m37 293l493 0c5 0 10 1 13 5 4 4 6 8 6 13l0 128-74 0 0-73-438 0 0 73-74 0 0-348c0-5 2-9 6-12 3-4 8-6 13-6l36 0c5 0 10 2 13 6 4 3 6 7 6 12z m164-92c0-20-7-37-21-52-15-14-32-21-52-21-20 0-37 7-52 21-14 15-21 32-21 52 0 20 7 38 21 52 15 14 32 21 52 21 20 0 37-7 52-21 14-14 21-32 21-52z m348 73l0-18c0-30-11-56-33-78-21-21-47-32-77-32l-201 0c-5 0-10 2-13 6-4 3-6 8-6 13l0 109z"/>
  </symbol>

  <symbol id="icon-angle-up" viewBox="0 0 512 512">
    <path d="m399 338c0 3-1 5-3 7l-15 14c-1 2-4 3-6 3-3 0-5-1-7-3l-112-112-112 112c-2 2-4 3-7 3-2 0-5-1-6-3l-15-14c-2-2-3-4-3-7 0-2 1-4 3-6l133-133c2-2 5-3 7-3 2 0 5 1 7 3l133 133c2 2 3 4 3 6z"/>
  </symbol>

  <symbol id="icon-angle-down" viewBox="0 0 512 512">
    <path d="m399 210c0 3-1 5-3 7l-133 133c-2 2-5 3-7 3-2 0-5-1-7-3l-133-133c-2-2-3-4-3-7 0-2 1-4 3-6l15-15c1-1 4-2 6-2 3 0 5 1 7 2l112 113 112-113c2-1 4-2 7-2 2 0 5 1 6 2l15 15c2 2 3 4 3 6z"/>
  </symbol>

  <symbol id="icon-bus" viewBox="0 0 512 512">
    <path d="m146 347c0-10-3-18-10-25-8-8-16-11-26-11-10 0-19 3-26 11-7 7-11 15-11 25 0 11 4 19 11 26 7 7 16 11 26 11 10 0 18-4 26-11 7-7 10-15 10-26z m293 0c0-10-4-18-11-25-7-8-16-11-26-11-10 0-18 3-26 11-7 7-10 15-10 25 0 11 3 19 10 26 8 7 16 11 26 11 10 0 19-4 26-11 7-7 11-15 11-26z m-13-113l-21-109c-1-5-3-8-6-11-4-3-7-4-12-4l-262 0c-5 0-8 1-12 4-3 3-5 6-6 11l-21 109c-1 6 1 11 4 15 4 5 9 7 14 7l304 0c5 0 10-2 14-7 3-4 5-9 4-15z m-65-175c0-3-1-7-4-9-3-3-6-4-10-4l-182 0c-4 0-7 1-10 4-3 2-4 6-4 9 0 4 1 7 4 10 3 3 6 4 10 4l182 0c4 0 7-1 10-4 3-3 4-6 4-10z m114 208l0 172-36 0 0 36c0 11-4 19-11 26-7 7-16 11-26 11-10 0-18-4-26-11-7-7-10-15-10-26l0-36-220 0 0 36c0 11-3 19-10 26-8 7-16 11-26 11-10 0-19-4-26-11-7-7-11-15-11-26l0-36-36 0 0-172c0-22 2-43 7-64l29-130c2-15 11-28 28-39 17-11 39-20 66-25 27-6 56-9 89-9 33 0 62 3 89 9 27 5 49 14 66 25 17 11 26 24 28 39l30 130c4 19 6 41 6 64z"/>
  </symbol>

  <symbol id="icon-building-o" viewBox="0 0 512 512">
    <path d="m165 375l0 18c0 3-1 5-3 7-2 1-4 2-7 2l-18 0c-2 0-4-1-6-2-2-2-3-4-3-7l0-18c0-3 1-5 3-7 2-1 4-2 6-2l18 0c3 0 5 1 7 2 2 2 3 4 3 7z m0-73l0 18c0 2-1 5-3 6-2 2-4 3-7 3l-18 0c-2 0-4-1-6-3-2-1-3-4-3-6l0-18c0-3 1-5 3-7 2-2 4-2 6-2l18 0c3 0 5 0 7 2 2 2 3 4 3 7z m73 0l0 18c0 2-1 5-3 6-2 2-4 3-6 3l-19 0c-2 0-4-1-6-3-2-1-3-4-3-6l0-18c0-3 1-5 3-7 2-2 4-2 6-2l19 0c2 0 4 0 6 2 2 2 3 4 3 7z m-73-73l0 18c0 2-1 4-3 6-2 2-4 3-7 3l-18 0c-2 0-4-1-6-3-2-2-3-4-3-6l0-18c0-3 1-5 3-7 2-2 4-3 6-3l18 0c3 0 5 1 7 3 2 2 3 4 3 7z m219 146l0 18c0 3-1 5-3 7-2 1-4 2-6 2l-18 0c-3 0-5-1-7-2-2-2-3-4-3-7l0-18c0-3 1-5 3-7 2-1 4-2 7-2l18 0c2 0 4 1 6 2 2 2 3 4 3 7z m-73-73l0 18c0 2-1 5-3 6-2 2-4 3-6 3l-19 0c-2 0-4-1-6-3-2-1-3-4-3-6l0-18c0-3 1-5 3-7 2-2 4-2 6-2l19 0c2 0 4 0 6 2 2 2 3 4 3 7z m-73-73l0 18c0 2-1 4-3 6-2 2-4 3-6 3l-19 0c-2 0-4-1-6-3-2-2-3-4-3-6l0-18c0-3 1-5 3-7 2-2 4-3 6-3l19 0c2 0 4 1 6 3 2 2 3 4 3 7z m-73-74l0 19c0 2-1 4-3 6-2 2-4 3-7 3l-18 0c-2 0-4-1-6-3-2-2-3-4-3-6l0-19c0-2 1-4 3-6 2-2 4-3 6-3l18 0c3 0 5 1 7 3 2 2 3 4 3 6z m219 147l0 18c0 2-1 5-3 6-2 2-4 3-6 3l-18 0c-3 0-5-1-7-3-2-1-3-4-3-6l0-18c0-3 1-5 3-7 2-2 4-2 7-2l18 0c2 0 4 0 6 2 2 2 3 4 3 7z m-73-73l0 18c0 2-1 4-3 6-2 2-4 3-6 3l-19 0c-2 0-4-1-6-3-2-2-3-4-3-6l0-18c0-3 1-5 3-7 2-2 4-3 6-3l19 0c2 0 4 1 6 3 2 2 3 4 3 7z m-73-74l0 19c0 2-1 4-3 6-2 2-4 3-6 3l-19 0c-2 0-4-1-6-3-2-2-3-4-3-6l0-19c0-2 1-4 3-6 2-2 4-3 6-3l19 0c2 0 4 1 6 3 2 2 3 4 3 6z m-73-73l0 19c0 2-1 4-3 6-2 2-4 3-7 3l-18 0c-2 0-4-1-6-3-2-2-3-4-3-6l0-19c0-2 1-4 3-6 2-2 4-3 6-3l18 0c3 0 5 1 7 3 2 2 3 4 3 6z m219 147l0 18c0 2-1 4-3 6-2 2-4 3-6 3l-18 0c-3 0-5-1-7-3-2-2-3-4-3-6l0-18c0-3 1-5 3-7 2-2 4-3 7-3l18 0c2 0 4 1 6 3 2 2 3 4 3 7z m-73-74l0 19c0 2-1 4-3 6-2 2-4 3-6 3l-19 0c-2 0-4-1-6-3-2-2-3-4-3-6l0-19c0-2 1-4 3-6 2-2 4-3 6-3l19 0c2 0 4 1 6 3 2 2 3 4 3 6z m-73-73l0 19c0 2-1 4-3 6-2 2-4 3-6 3l-19 0c-2 0-4-1-6-3-2-2-3-4-3-6l0-19c0-2 1-4 3-6 2-2 4-3 6-3l19 0c2 0 4 1 6 3 2 2 3 4 3 6z m146 73l0 19c0 2-1 4-3 6-2 2-4 3-6 3l-18 0c-3 0-5-1-7-3-2-2-3-4-3-6l0-19c0-2 1-4 3-6 2-2 4-3 7-3l18 0c2 0 4 1 6 3 2 2 3 4 3 6z m-73-73l0 19c0 2-1 4-3 6-2 2-4 3-6 3l-19 0c-2 0-4-1-6-3-2-2-3-4-3-6l0-19c0-2 1-4 3-6 2-2 4-3 6-3l19 0c2 0 4 1 6 3 2 2 3 4 3 6z m73 0l0 19c0 2-1 4-3 6-2 2-4 3-6 3l-18 0c-3 0-5-1-7-3-2-2-3-4-3-6l0-19c0-2 1-4 3-6 2-2 4-3 7-3l18 0c2 0 4 1 6 3 2 2 3 4 3 6z m-73 393l110 0 0-438-330 0 0 438 110 0 0-64c0-2 1-4 3-6 2-2 4-3 6-3l92 0c2 0 4 1 6 3 2 2 3 4 3 6z m146-457l0 476c0 5-2 9-5 13-4 3-8 5-13 5l-366 0c-5 0-9-2-13-5-3-4-5-8-5-13l0-476c0-5 2-9 5-13 4-3 8-5 13-5l366 0c5 0 9 2 13 5 3 4 5 8 5 13z"/>
  </symbol>

  <symbol id="icon-train" viewBox="0 0 512 512">
    <path d="m389 85l-68 0l-34-42l-31 0l0-22l-21 0l0 22l-23 0l-28 42l-94 0c-35 0-69 20-69 55l0 256c0 35 43 73 64 73l0 43l64 0l0-43l171 0l0 43l64 0l0-43c43 0 64-38 64-73l0-256c0-35-24-55-59-55z m-165-21l53 0l17 21l-85 0z m181 332c0 12-5 31-16 31l-299 0c-12 0-26-19-26-31l0-256c0-12 14-12 26-12l299 0c11 0 16 0 16 12z m-320-55l299 0l0-170l-299 0z m22-149l256 0l0 128l-256 0z m106 213l43 0l0-42l-43 0z"/>
  </symbol>

  <symbol id="icon-truck" viewBox="0 0 512 512">
    <path d="m397 183c-3-4-8-7-13-7l-16 0c-9 0-16 7-16 16l0 96c0 9 7 16 16 16l64 0c9 0 16-7 16-16l0-24c0-3-1-6-3-9z m35 105l-64 0l0-96l16 0l48 72z m72-43l-64-96c-9-13-24-21-40-21l-64 0l0-32c0-26-22-48-48-48l-240 0c-26 0-48 22-48 48l0 176c0 26 22 48 48 48l0 48c0 26 22 48 48 48l18 0c7 28 32 48 62 48c30 0 55-20 62-48l84 0c7 28 32 48 62 48c30 0 55-20 62-48l18 0c26 0 48-22 48-48l0-96c0-10-3-19-8-27z m-456 43c-9 0-16-7-16-16l0-176c0-9 7-16 16-16l240 0c9 0 16 7 16 16l0 176c0 9-7 16-16 16z m128 144c-18 0-32-14-32-32c0-18 14-32 32-32c18 0 32 14 32 32c0 18-14 32-32 32z m208 0c-18 0-32-14-32-32c0-18 14-32 32-32c18 0 32 14 32 32c0 18-14 32-32 32z m96-64c0 9-7 16-16 16l-18 0c-7-28-32-48-62-48c-30 0-55 20-62 48l-84 0c-7-28-32-48-62-48c-30 0-55 20-62 48l-18 0c-9 0-16-7-16-16l0-48l208 0c26 0 48-22 48-48l0-112l64 0c5 0 10 3 13 7l64 96c2 3 3 6 3 9z"/>
  </symbol>

  <symbol id="icon-heart-o" viewBox="0 0 512 512">
    <path d="m475 170c0-15-2-29-6-41-4-11-9-21-15-28-7-7-15-12-24-17-9-4-18-7-27-9-8-1-18-2-28-2-9 0-20 3-32 7-11 5-22 11-31 19-10 7-18 14-25 20-7 7-12 13-17 18-3 4-8 6-14 6-6 0-11-2-14-6-5-5-10-11-17-18-7-6-15-13-25-20-9-8-20-14-31-19-12-4-23-7-32-7-10 0-20 1-28 2-9 2-18 5-27 9-9 5-17 10-24 17-6 7-11 17-15 28-4 12-6 26-6 41 0 32 17 66 53 102l166 160 166-160c36-36 53-70 53-102z m37 0c0 42-22 85-65 129l-178 171c-4 4-8 5-13 5-5 0-9-1-13-5l-178-172c-2-1-4-4-8-7-3-4-8-10-16-19-7-9-13-18-19-28-6-9-11-21-15-34-5-14-7-27-7-40 0-42 12-74 36-98 24-24 58-35 101-35 11 0 23 2 36 6 12 4 23 9 34 16 11 7 20 14 27 20 8 6 15 12 22 19 7-7 14-13 22-19 7-6 16-13 27-20 11-7 22-12 34-16 13-4 25-6 36-6 43 0 77 11 101 35 24 24 36 56 36 98z"/>
  </symbol>

  <symbol id="icon-heart" viewBox="0 0 512 512">
    <path d="m256 475c-5 0-9-1-13-5l-178-172c-2-1-4-4-8-7-3-4-8-10-16-19-7-9-13-18-19-28-6-9-11-21-15-34-5-14-7-27-7-40 0-42 12-74 36-98 24-24 58-35 101-35 11 0 23 2 36 6 12 4 23 9 34 16 11 7 20 14 27 20 8 6 15 12 22 19 7-7 14-13 22-19 7-6 16-13 27-20 11-7 22-12 34-16 13-4 25-6 36-6 43 0 77 11 101 35 24 24 36 56 36 98 0 42-22 85-65 129l-178 171c-4 4-8 5-13 5z"/>
  </symbol>

  <symbol id="icon-square-o" viewBox="0 0 512 512">
    <path d="m375 73l-238 0c-12 0-23 5-32 14-9 9-14 19-14 32l0 238c0 12 5 23 14 32 9 9 20 13 32 13l238 0c12 0 23-4 32-13 9-9 14-20 14-32l0-238c0-13-5-23-14-32-9-9-20-14-32-14z m82 46l0 238c0 22-8 42-24 58-16 16-35 24-58 24l-238 0c-23 0-42-8-58-24-16-16-24-36-24-58l0-238c0-23 8-42 24-58 16-16 35-24 58-24l238 0c23 0 42 8 58 24 16 16 24 35 24 58z"/>
  </symbol>

  <symbol id="icon-square" viewBox="0 0 512 512">
    <path d="m475 119l0 274c0 23-8 42-24 58-16 16-35 24-58 24l-274 0c-23 0-42-8-58-24-16-16-24-35-24-58l0-274c0-23 8-42 24-58 16-16 35-24 58-24l274 0c23 0 42 8 58 24 16 16 24 35 24 58z"/>
  </symbol>

  <symbol id="icon-graduation-cap" viewBox="0 0 512 512">
    <path d="m85 313c0 0 171 86 171 86c0 0 141-69 141-69c-1 7-2 15-4 24c-1 8-2 14-3 18c-1 3-2 7-5 11c-4 5-8 9-13 12c-5 4-13 7-23 12c-13 6-27 13-41 21c-13 7-24 13-32 17c-8 4-15 6-20 6c-5 0-12-3-20-7c-9-5-20-11-33-19c-14-8-28-15-41-21c-25-10-42-22-53-35c-11-12-19-31-24-56m415-126c8 5 12 11 12 17c0 7-4 12-12 17c0 0-40 23-40 23c0 0-158-53-158-53c-7-12-23-18-46-18c-14 0-25 3-34 8c-10 6-14 13-14 21c0 8 4 15 14 20c9 6 20 8 34 8c9 0 15 0 18-2c0 0 150 35 150 35c0 0-137 78-137 78c-21 11-41 11-62 0c0 0-213-120-213-120c-8-5-12-10-12-17c0-6 4-12 12-17c0 0 213-119 213-119c21-11 41-11 62 0c0 0 213 119 213 119m-66 227c6-40 9-71 7-93c-2-23-5-38-10-47c0 0-7-11-7-11c0 0 36-19 36-19c2 2 4 7 6 14c2 7 5 24 9 52c3 27 2 61-4 101c-1 9-5 14-11 15c-6 1-12 0-18-3c-6-3-9-6-8-9"/>
  </symbol>

  <symbol id="icon-child" viewBox="0 0 512 512">
    <path d="m413 157l-84 83 0 235c0 9-3 17-9 23-7 6-14 9-23 9-9 0-16-3-22-9-7-6-10-14-10-23l0-109-18 0 0 109c0 9-3 17-10 23-6 6-13 9-22 9-9 0-16-3-23-9-6-6-9-14-9-23l0-235-84-83c-5-6-8-12-8-20 0-7 3-14 8-19 6-6 12-8 20-8 7 0 14 2 19 8l65 65 106 0 65-65c5-6 12-8 19-8 8 0 14 2 20 8 5 5 8 12 8 19 0 8-3 14-8 20z m-93-47c0 17-6 33-19 45-12 12-27 19-45 19-18 0-33-7-45-19-13-12-19-28-19-45 0-18 6-33 19-46 12-12 27-18 45-18 18 0 33 6 45 18 13 13 19 28 19 46z"/>
  </symbol>

  <symbol id="icon-map-marker" viewBox="0 0 512 512">
    <path d="m329 183c0-20-7-38-21-52-15-14-32-21-52-21-20 0-37 7-52 21-14 14-21 32-21 52 0 20 7 37 21 52 15 14 32 21 52 21 20 0 37-7 52-21 14-15 21-32 21-52z m73 0c0 21-3 38-9 51l-104 221c-3 6-8 11-14 15-6 4-12 5-19 5-7 0-13-1-19-5-6-4-11-9-14-15l-104-221c-6-13-9-30-9-51 0-41 14-75 43-104 28-28 63-42 103-42 40 0 75 14 103 42 29 29 43 63 43 104z"/>
  </symbol>

  <symbol id="icon-globe" viewBox="0 0 512 512">
    <path d="m256 37c40 0 77 9 110 29 34 20 60 46 80 80 20 33 29 70 29 110 0 40-9 77-29 110-20 34-46 60-80 80-33 20-70 29-110 29-40 0-77-9-110-29-34-20-60-46-80-80-20-33-29-70-29-110 0-40 9-77 29-110 20-34 46-60 80-80 33-20 70-29 110-29z m78 148c0 1-1 2-2 3-2 2-3 3-4 3 0 0 1-1 1-2 0-1 1-2 1-3 1-1 1-2 1-2 2-1 4-2 7-4 2-1 7-2 15-3 6-2 11-1 14 3 0-1 1-2 3-4 2-2 3-3 4-3 1-1 2-1 4-2 3 0 4-1 5-2l0-6c-2 0-4-1-5-2-1-2-2-4-2-6 0 0 0 1-1 2 0-1-1-2-2-2-1 0-2 0-3 0-1 1-2 1-3 0-1 0-3-1-4-2-1-1-2-2-2-4-1-3-1-4-1-5-1-1-2-2-3-3-1-1-2-2-3-3 0 0 0-1 0-1-1-1-1-2-1-2-1-1-1-1-1-2-1 0-1 0-2 0-1 0-1 0-2 1-1 1-1 2-2 3-1 1-1 1-1 1-1 0-2 0-2 0-1 0-1 0-1 0-1 0-1 1-2 1 0 0-1 1-1 1-1 0-2 1-3 1-1 0-1 0-2 0 3-1 3-2 0-3-2 0-4-1-5-1 2 0 3-1 2-3 0-2-1-3-2-4l1 0c0-1-1-2-2-2-2-1-3-2-5-3-2-1-3-1-4-2-1-1-5-1-10-2-5-1-8-1-9 0-1 1-1 2-1 3 0 0 0 2 1 4 1 1 1 3 1 3 0 1 0 3-2 4-1 1-2 2-2 3 0 2 2 3 4 5 3 1 4 3 3 6 0 1-2 3-4 4-3 2-4 3-5 4-1 1-1 3 0 5 0 2 1 4 3 5 0 0 0 1 0 1 0 0 0 1-1 1 0 1-1 1-1 1-1 1-2 1-2 1l-1 1c-2 1-4 0-6-2-2-2-3-4-4-7-1-5-3-8-4-9-5-1-8-1-9 1-1-3-5-5-11-8-5-2-11-2-17-1 1 0 1-2 0-4-1-3-3-4-5-4 0-1 1-3 1-5 0-2 0-3 0-4 1-2 2-4 3-6 1 0 1-1 2-3 2-1 2-2 3-3 1-2 1-2 2-2 6 1 11 0 14-3 1-1 2-3 3-5 1-2 2-4 3-5 2-1 3-2 4-2 1 1 2 1 4 2 2 1 3 1 4 1 3 1 5 0 5-3 0-2-1-4-2-5 2 0 2-2 1-5-1-2-2-2-3-3-2-1-5 0-7 2-2 0-2 1 0 2 0 0-1 1-3 3-1 2-3 4-4 5-2 1-3 1-5-2 0 0-1-1-1-3-1-3-2-4-3-4-2 0-3 1-5 4 1-2 0-3-3-4-3-2-5-2-7-3 4-2 3-4-2-7-1-1-3-2-6-2-2 0-4 0-5 1-1 2-2 3-2 4 0 1 0 1 1 2 1 1 2 1 3 2 1 0 2 0 4 1 1 0 2 0 2 1 3 1 4 3 2 4 0 0-1 0-2 1-1 0-2 0-3 1-1 0-2 1-2 1-1 1-1 2 0 4 1 2 0 3-1 4-1-1-1-3-2-5-1-2-2-4-2-5 1 2-1 3-7 2l-3 0c-1 0-2 0-5 0-2 1-4 1-6 1-1-1-2-1-3-3-1-1-1-3 0-5 0-1 0-1 1-1-1-1-2-1-3-3-2-1-3-2-3-2-9 3-18 7-27 12 1 0 2 0 3-1 1 0 2-1 4-2 2 0 2-1 3-1 6-3 10-3 12-2l1-2c3 3 5 6 6 8-1-1-4-1-9-1-3 1-5 3-6 4 1 2 2 4 2 5-1-1-2-2-4-3-1-1-3-2-4-3-1-1-3-1-4-2-3 0-5 1-6 1-28 15-51 36-68 63 2 1 3 2 4 2 1 1 1 1 1 3 0 2 1 3 1 3 0 1 1 0 3-1 2 2 2 4 1 6 0 0 5 2 13 7 3 4 5 6 6 6 0 3-1 4-3 6 0-1-1-2-3-3-1-1-2-2-2-1-1 1-1 3 0 5 1 3 2 4 3 4-1 0-2 1-3 4 0 3-1 7-1 10 0 4 0 6 0 7l1 0c-1 3 0 6 1 10 2 5 4 6 6 6-2 0 0 5 6 12 1 2 2 3 2 3 1 0 2 1 4 2 2 1 3 2 4 3 1 1 2 2 3 3 1 1 2 3 3 6 1 3 2 6 4 7-1 1 0 3 3 6 2 2 3 4 3 6-1 0-1 0-1 0 0 1-1 1-1 1 1 1 2 2 5 4 2 1 3 2 4 3 0 1 0 2 1 3 0 2 0 3 0 3 1 1 2 1 3 1 0-4-2-10-7-18-3-4-5-7-5-8-1-1-1-2-2-4 0-2 0-4-1-5 1 0 1 1 2 1 1 0 1 0 2 1 1 0 2 1 2 1 1 0 1 1 1 1-1 1 0 3 1 5 1 2 2 4 3 5 1 2 3 3 5 6 2 2 3 3 3 3 1 1 3 3 4 6 2 2 2 4 0 4 2 0 4 1 6 3 2 1 4 3 5 5 1 2 2 4 2 8 1 3 1 5 2 7 0 1 1 2 2 3 1 2 2 3 4 3l4 2 4 2c1 1 3 2 5 3 3 2 5 3 6 4 2 0 4 1 5 1 1 0 2 0 4-1 2 0 3-1 4-1 3 0 5 1 8 4 3 4 5 6 6 6 7 4 12 5 16 4-1 0 0 0 0 2 0 1 1 2 2 4 1 2 2 3 3 4 1 1 1 2 1 3 1 1 3 2 6 4 2 2 4 3 5 4 1 0 2-1 2-2-1 1 0 3 2 5 2 3 3 4 5 3 3 0 4-3 4-9-6 3-11 1-14-5 0 0 0-1-1-2 0 0-1-1-1-2 0-1-1-2-1-2 0-1 0-2 0-3 0 0 1 0 2 0 1 0 2-1 3-1 0-1 0-2-1-4-1-2-1-3-1-4 0-1-1-3-3-5-2-3-3-4-4-5-1 2-2 3-4 3-2-1-4-1-5-3 0 0 0 1 0 2-1 0-1 1-1 1-2 0-4 0-4 0 0 0 0-2 1-5 0-3 0-5 1-6 0-1 0-2 1-4 1-1 2-3 2-4 1-1 1-2 2-3 0-2-1-2-2-3-1-1-2-1-5-1-3 0-6 2-7 6 0 0-1 1-1 3 0 1-1 2-1 3-1 1-2 2-3 2-1 1-4 1-7 1-3 0-5-1-7-2-2-1-4-4-6-8-2-4-3-8-3-11 0-1 0-4 1-7 0-3 1-6 1-7 0-2-1-4-2-7 1-1 2-2 3-3 1-1 2-2 3-3 0 0 0 0 1 0 0-1 1-1 1 0 1 0 1 0 1-1 1 0 1-1 1-2 0 0 0 0-1 0-1-1-1-1-1-1 1 0 4 0 8-1 4-1 7 0 8 1 3 2 5 2 6-1 0 0 0-1-1-3 0-1 0-2 0-3 1 5 4 6 9 2 0 1 2 1 4 2 2 0 4 0 5 1 1 0 1 1 2 2 1 0 1 1 2 1 0 0 0 0 1 0 1-1 1-1 2-2 2 3 3 5 4 7 2 7 4 12 5 12 2 1 3 1 3 1 1 0 2-1 2-3 0-1 0-3 0-4 0-1-1-2-1-3l0-3 0-5 0-2c-3-1-5-2-6-4 0-1 0-3 1-5 1-2 2-3 4-5 0 0 1-1 2-1 2-1 3-1 5-2 1-1 3-2 3-2 4-4 6-7 5-10 1 0 2-1 3-3 0 0-1 0-2-1 0 0-1-1-2-1 0-1-1-1-1-1 2-1 2-2 1-4 1-1 1-2 2-3 0-2 1-3 2-3 2 2 4 2 6 0 1-1 1-3 0-4 1-2 3-3 6-3 3-1 5-2 5-3 2 0 2 0 3-1 0 0 0-1 0-3 0-2 0-3 1-3 0-1 2-2 4-3 2-1 3-1 4-1l5-4c0 0 0-1 0-1 3 1 6 0 8-3 2-2 2-4-1-6 0-1 0-2-1-2-1-1-3-1-4-2 0 0 1 0 3 0 1 0 2 0 3 0 3-2 2-4-2-5-3-1-7 0-12 3z m-46 251c39-7 72-25 100-54-1-1-2-1-4-1-1-1-3-1-3-1-4-2-6-2-7-3 0-1 0-2-1-3 0-1-1-2-2-3-1 0-2-1-4-2-1-1-2-2-3-2 0-1-1-1-2-2-1-1-1-1-2-1 0-1-1-1-2-2-1 0-2 0-2 0-1 0-2 0-3 0l-1 0c-1 0-1 1-2 1 0 0-1 1-1 1-1 0-1 0-1 1 0 0 0 0 0 0-4-3-8-5-11-6-1 0-2-1-3-1-1-1-2-2-3-2-1-1-2-1-3-1-1 0-2 1-3 2-1 1-1 3-2 4 0 2 0 4 0 4-1-1-1-2 0-5 1-2 1-4 0-5 0-1-1-2-3-1-1 0-2 0-3 1-1 0-2 1-3 2-2 1-2 2-3 2 0 0-1 1-2 2-2 1-2 1-3 2 0 1-1 2-1 3-1 2-1 3-2 3 0 0-1-1-3-1-2-1-3-1-3-2 1 2 1 5 1 10 1 5 1 8 2 11 1 6 0 10-4 14-5 4-8 8-8 11-1 4 0 7 3 7 0 2 0 4-2 6-1 3-2 5-2 6 0 2 0 3 1 5z"/>
  </symbol>

  <symbol id="icon-location-arrow" viewBox="0 0 512 512">
    <path d="m455 100l-183 365c-3 7-8 10-16 10-1 0-2 0-4 0-4-1-8-3-10-7-3-3-4-7-4-11l0-164-165 0c-4 0-8-2-11-4-3-3-6-6-7-10-1-5 0-9 2-12 1-4 4-7 8-9l366-183c2-1 5-2 8-2 5 0 9 2 13 6 3 2 4 6 5 9 1 4 0 8-2 12z"/>
  </symbol>

  <symbol id="icon-calendar" viewBox="0 0 512 512">
    <path d="m55 475l82 0 0-82-82 0z m100 0l92 0 0-82-92 0z m-100-100l82 0 0-92-82 0z m100 0l92 0 0-92-92 0z m-100-110l82 0 0-82-82 0z m210 210l92 0 0-82-92 0z m-110-210l92 0 0-82-92 0z m220 210l82 0 0-82-82 0z m-110-100l92 0 0-92-92 0z m-100-247l0-82c0-3-1-5-3-7-2-2-4-2-7-2l-18 0c-2 0-4 0-6 2-2 2-3 4-3 7l0 82c0 2 1 5 3 6 2 2 4 3 6 3l18 0c3 0 5-1 7-3 2-1 3-4 3-6z m210 247l82 0 0-92-82 0z m-110-110l92 0 0-82-92 0z m110 0l82 0 0-82-82 0z m9-137l0-82c0-3-1-5-3-7-2-2-4-2-6-2l-18 0c-3 0-5 0-7 2-2 2-3 4-3 7l0 82c0 2 1 5 3 6 2 2 4 3 7 3l18 0c2 0 4-1 6-3 2-1 3-4 3-6z m110-18l0 365c0 10-4 19-11 26-7 7-16 11-26 11l-402 0c-10 0-19-4-26-11-7-7-11-16-11-26l0-365c0-10 4-19 11-26 7-7 16-11 26-11l36 0 0-27c0-13 5-24 14-33 9-9 20-13 32-13l18 0c13 0 24 4 33 13 9 9 13 20 13 33l0 27 110 0 0-27c0-13 4-24 13-33 9-9 20-13 33-13l18 0c12 0 23 4 32 13 9 9 14 20 14 33l0 27 36 0c10 0 19 4 26 11 7 7 11 16 11 26z"/>
  </symbol>

  <symbol id="icon-codepen" viewBox="0 0 512 512">
    <path d="m62 334l172 115 0-103-95-63z m-18-41l55-37-55-37z m234 156l172-115-77-51-95 63z m-22-141l78-52-78-52-78 52z m-117-79l95-63 0-103-172 115z m274 27l55 37 0-74z m-40-27l77-51-172-115 0 103z m139-51l0 156c0 8-3 14-10 18l-234 156c-4 3-8 4-12 4-4 0-8-1-12-4l-234-156c-7-4-10-10-10-18l0-156c0-8 3-14 10-18l234-156c4-3 8-4 12-4 4 0 8 1 12 4l234 156c7 4 10 10 10 18z"/>
  </symbol>

  <symbol id="icon-envelope-o" viewBox="0 0 512 512">
    <path d="m475 430l0-220c-6 7-12 13-19 19-51 39-92 72-122 97-10 8-18 14-24 19-6 4-14 9-24 14-11 4-21 7-30 7l0 0c-9 0-19-3-30-7-10-5-18-10-24-14-6-5-14-11-24-19-30-25-71-58-122-97-7-6-13-12-19-19l0 220c0 2 0 4 2 6 2 2 4 3 7 3l420 0c3 0 5-1 7-3 2-2 2-4 2-6z m0-301l0-7 0-3-1-4-1-2-3-3-4 0-420 0c-3 0-5 1-7 2-2 2-2 4-2 7 0 32 14 59 42 81 36 29 75 59 114 91 1 1 5 3 10 8 6 5 10 8 13 11 4 2 8 5 13 9 5 3 10 6 14 8 5 1 9 2 13 2l0 0c4 0 8-1 13-2 4-2 9-5 14-8 5-4 9-7 13-9 3-3 7-6 13-11 5-5 9-7 10-8 39-32 78-62 114-91 11-8 20-19 29-33 9-14 13-26 13-38z m37-10l0 311c0 12-4 23-13 32-9 9-20 13-33 13l-420 0c-13 0-24-4-33-13-9-9-13-20-13-32l0-311c0-13 4-23 13-32 9-9 20-14 33-14l420 0c13 0 24 5 33 14 9 9 13 19 13 32z"/>
  </symbol>

  <symbol id="icon-envelope" viewBox="0 0 512 512">
    <path d="m512 203l0 227c0 12-4 23-13 32-9 9-20 13-33 13l-420 0c-13 0-24-4-33-13-9-9-13-20-13-32l0-227c8 9 18 17 29 25 69 47 116 79 142 98 11 8 20 15 26 19 7 4 16 9 27 14 12 4 22 7 32 7l0 0c10 0 20-3 32-7 11-5 20-10 27-14 6-4 15-11 26-19 33-23 80-56 142-98 11-8 21-16 29-25z m0-84c0 15-5 29-14 43-9 14-21 25-35 35-71 50-116 81-134 93-1 1-6 4-12 9-6 4-11 8-15 11-4 2-9 5-15 9-6 3-11 6-16 8-6 1-10 2-15 2l0 0c-5 0-9-1-15-2-5-2-10-5-16-8-6-4-11-7-15-9-4-3-9-7-15-11-6-5-11-8-12-9-18-12-43-30-75-52-33-23-52-36-59-41-12-8-23-19-33-33-11-14-16-27-16-39 0-15 4-27 12-37 8-10 19-15 34-15l420 0c13 0 23 5 32 14 9 9 14 19 14 32z"/>
  </symbol>

  <symbol id="icon-settings-streamline" viewBox="0 0 512 512">
    <path d="m469 0l-426 0c-24 0-43 19-43 43l0 426c0 24 19 43 43 43l426 0c24 0 43-19 43-43l0-426c0-24-19-43-43-43z m22 469c0 12-10 22-22 22l-426 0c-12 0-22-10-22-22l0-426c0-12 10-22 22-22l426 0c12 0 22 10 22 22z m-96-256l-22 0l0-138c0-6-4-11-10-11c-6 0-11 5-11 11l0 138l-21 0c-6 0-11 5-11 11l0 43c0 6 5 10 11 10l21 0l0 32c0 6 5 11 11 11c6 0 10-5 10-11l0-32l22 0c6 0 10-4 10-10l0-43c0-6-4-11-10-11z m-11 43l-43 0l0-21l43 0z m-96-149l-21 0l0-32c0-6-5-11-11-11c-6 0-11 5-11 11l0 32l-21 0c-6 0-11 4-11 10l0 43c0 6 5 11 11 11l21 0l0 138c0 6 5 11 11 11c6 0 11-5 11-11l0-138l21 0c6 0 11-5 11-11l0-43c0-6-5-10-11-10z m-11 42l-42 0l0-21l42 0z m-96 22l-21 0l0-96c0-6-5-11-11-11c-6 0-10 5-10 11l0 96l-22 0c-6 0-10 4-10 10l0 43c0 6 4 11 10 11l22 0l0 74c0 6 4 11 10 11c6 0 11-5 11-11l0-74l21 0c6 0 11-5 11-11l0-43c0-6-5-10-11-10z m-10 42l-43 0l0-21l43 0z m192 150c-24 0-43 19-43 42c0 24 19 43 43 43c23 0 42-19 42-43c0-23-19-42-42-42z m0 64c-12 0-22-10-22-22c0-11 10-21 22-21c11 0 21 10 21 21c0 12-10 22-21 22z m-107-64c-24 0-43 19-43 42c0 24 19 43 43 43c24 0 43-19 43-43c0-23-19-42-43-42z m0 64c-12 0-21-10-21-22c0-11 9-21 21-21c12 0 21 10 21 21c0 12-9 22-21 22z m-107-64c-23 0-42 19-42 42c0 24 19 43 42 43c24 0 43-19 43-43c0-23-19-42-43-42z m0 64c-11 0-21-10-21-22c0-11 10-21 21-21c12 0 22 10 22 21c0 12-10 22-22 22z"/>
  </symbol>

  <symbol id="icon-bars" viewBox="0 0 512 512">
    <path d="m475 384l0 37c0 5-1 9-5 12-4 4-8 6-13 6l-402 0c-5 0-9-2-13-6-4-3-5-7-5-12l0-37c0-5 1-9 5-13 4-3 8-5 13-5l402 0c5 0 9 2 13 5 4 4 5 8 5 13z m0-146l0 36c0 5-1 10-5 13-4 4-8 6-13 6l-402 0c-5 0-9-2-13-6-4-3-5-8-5-13l0-36c0-5 1-10 5-13 4-4 8-6 13-6l402 0c5 0 9 2 13 6 4 3 5 8 5 13z m0-147l0 37c0 5-1 9-5 13-4 3-8 5-13 5l-402 0c-5 0-9-2-13-5-4-4-5-8-5-13l0-37c0-5 1-9 5-12 4-4 8-6 13-6l402 0c5 0 9 2 13 6 4 3 5 7 5 12z"/>
  </symbol>

  <symbol id="icon-object-ungroup" viewBox="0 0 512 512">
    <path d="m585 219l-36 0 0 183 36 0 0 110-110 0 0-37-256 0 0 37-109 0 0-110 36 0 0-36-109 0 0 36-110 0 0-109 36 0 0-183-36 0 0-110 110 0 0 37 256 0 0-37 109 0 0 110-36 0 0 36 109 0 0-36 110 0z m-73-73l0 37 37 0 0-37z m-183-109l0 36 37 0 0-36z m-366 0l0 36 37 0 0-36z m37 329l0-37-37 0 0 37z m366-37l-37 0 0 37 37 0z m-329 0l256 0 0-36 36 0 0-183-36 0 0-37-256 0 0 37-37 0 0 183 37 0z m146 146l0-36-37 0 0 36z m366 0l0-36-37 0 0 36z m-37-73l0-183-37 0 0-36-109 0 0 110 36 0 0 109-109 0 0-36-110 0 0 36 36 0 0 37 256 0 0-37z"/>
  </symbol>

  <symbol id="icon-sliders" viewBox="0 0 512 512">
    <path d="m137 402l0 37-100 0 0-37z m101-36c5 0 9 2 13 5 3 4 5 8 5 13l0 73c0 5-2 9-5 13-4 4-8 5-13 5l-73 0c-5 0-10-1-13-5-4-4-6-8-6-13l0-73c0-5 2-9 6-13 3-3 8-5 13-5z m45-110l0 37-246 0 0-37z m-182-146l0 36-64 0 0-36z m374 292l0 37-210 0 0-37z m-274-329c5 0 9 2 13 6 4 3 5 7 5 12l0 74c0 5-1 9-5 12-4 4-8 6-13 6l-73 0c-5 0-9-2-13-6-3-3-5-7-5-12l0-74c0-5 2-9 5-12 4-4 8-6 13-6z m183 146c5 0 9 2 13 6 3 3 5 8 5 13l0 73c0 5-2 9-5 13-4 3-8 5-13 5l-73 0c-5 0-9-2-13-5-4-4-5-8-5-13l0-73c0-5 1-10 5-13 4-4 8-6 13-6z m91 37l0 37-64 0 0-37z m0-146l0 36-246 0 0-36z"/>
  </symbol>

  <symbol id="icon-trash-o" viewBox="0 0 512 512">
    <path d="m201 210l0 165c0 3-1 5-2 6-2 2-4 3-7 3l-18 0c-3 0-5-1-7-3-2-1-2-3-2-6l0-165c0-2 0-5 2-6 2-2 4-3 7-3l18 0c3 0 5 1 7 3 1 1 2 4 2 6z m73 0l0 165c0 3-1 5-2 6-2 2-4 3-7 3l-18 0c-3 0-5-1-7-3-1-1-2-3-2-6l0-165c0-2 1-5 2-6 2-2 4-3 7-3l18 0c3 0 5 1 7 3 1 1 2 4 2 6z m73 0l0 165c0 3 0 5-2 6-2 2-4 3-7 3l-18 0c-3 0-5-1-7-3-1-1-2-3-2-6l0-165c0-2 1-5 2-6 2-2 4-3 7-3l18 0c3 0 5 1 7 3 2 1 2 4 2 6z m37 207l0-271-256 0 0 271c0 4 1 8 2 12 1 3 3 6 4 7 2 2 3 3 3 3l238 0c0 0 1-1 3-3 1-1 3-4 4-7 1-4 2-8 2-12z m-192-307l128 0-14-34c-1-1-3-2-5-3l-90 0c-2 1-4 2-5 3z m265 9l0 18c0 3-1 5-2 7-2 1-4 2-7 2l-27 0 0 271c0 16-5 30-14 41-9 12-20 17-32 17l-238 0c-12 0-23-5-32-16-9-11-14-25-14-41l0-272-27 0c-3 0-5-1-7-2-1-2-2-4-2-7l0-18c0-3 1-5 2-7 2-1 4-2 7-2l88 0 20-48c3-7 8-13 16-18 7-5 15-7 22-7l92 0c7 0 15 2 22 7 8 5 13 11 16 18l20 48 88 0c3 0 5 1 7 2 1 2 2 4 2 7z"/>
  </symbol>

  <symbol id="icon-trash" viewBox="0 0 512 512">
    <path d="m201 393l0-201c0-3-1-5-2-7-2-1-4-2-7-2l-18 0c-3 0-5 1-7 2-2 2-2 4-2 7l0 201c0 3 0 5 2 7 2 1 4 2 7 2l18 0c3 0 5-1 7-2 1-2 2-4 2-7z m73 0l0-201c0-3-1-5-2-7-2-1-4-2-7-2l-18 0c-3 0-5 1-7 2-1 2-2 4-2 7l0 201c0 3 1 5 2 7 2 1 4 2 7 2l18 0c3 0 5-1 7-2 1-2 2-4 2-7z m73 0l0-201c0-3 0-5-2-7-2-1-4-2-7-2l-18 0c-3 0-5 1-7 2-1 2-2 4-2 7l0 201c0 3 1 5 2 7 2 1 4 2 7 2l18 0c3 0 5-1 7-2 2-2 2-4 2-7z m-155-283l128 0-14-34c-1-1-3-2-5-3l-90 0c-2 1-4 2-5 3z m265 9l0 18c0 3-1 5-2 7-2 1-4 2-7 2l-27 0 0 271c0 16-5 30-14 41-9 12-20 17-32 17l-238 0c-12 0-23-5-32-16-9-11-14-25-14-41l0-272-27 0c-3 0-5-1-7-2-1-2-2-4-2-7l0-18c0-3 1-5 2-7 2-1 4-2 7-2l88 0 20-48c3-7 8-13 16-18 7-5 15-7 22-7l92 0c7 0 15 2 22 7 8 5 13 11 16 18l20 48 88 0c3 0 5 1 7 2 1 2 2 4 2 7z"/>
  </symbol>

  <symbol id="icon-trees" viewBox="0 0 512 512">
    <path d="m471 415l0 0l-37-65l14 0l0 0c3 0 6-3 6-6c0-1 0-1-1-2l0 0l-34-60l8 0l0 0c2 0 4-2 4-4c0-1 0-1 0-2l0 0l-51-87l0 0c-1-2-3-4-6-4c-2 0-5 2-6 4l0 0l-50 87l0 0c0 1 0 1 0 2c0 2 1 4 4 4l0 0l8 0l-34 60l0 0c-1 1-1 1-1 2c0 3 2 6 5 6l0 0l15 0l-11 19l-43-75l21 0l0 0c4 0 8-3 8-8c0-1 0-2-1-3l0-1l-49-84l12 0l0 0c3 0 6-2 6-5c0-1 0-2-1-3l0 0l-71-123l0 0c-1-3-4-5-8-5c-4 0-7 2-9 5l-71 123l0 0c0 1 0 2 0 3c0 3 2 5 5 5l0 0l12 0l-48 83c-1 2-2 3-2 5c0 5 4 8 8 8l0 0l21 0l-52 90c-1 2-2 4-2 6c0 5 5 9 10 9l0 0l101 0l0 44c0 4 4 7 8 7l37 0c5 0 8-3 8-7l0-44l83 0l-9 16l0 0c-1 1-1 2-1 3c0 4 3 7 7 7l0 0l72 0l0 20c0 3 2 5 5 5l27 0c3 0 5-2 5-5l0-20l72 0l0 0c4 0 7-3 7-7c0-1-1-2-1-3z"/>
  </symbol>

  <symbol id="icon-pagelines" viewBox="0 0 512 512">
    <path d="m455 315c-6 15-13 29-21 40-9 11-17 19-26 25-9 6-19 10-29 13-9 3-19 5-29 4-9 0-18-1-27-2-9-1-17-4-25-6-7-3-14-6-20-8-5-3-10-5-13-7l-5-3c-21 44-49 78-82 103-34 25-71 38-110 38-4 0-7-1-9-4-3-2-4-5-4-9 0-3 1-6 4-9 2-2 5-3 9-3 33-1 63-11 92-31 28-20 52-48 72-84-7 2-14 5-21 6-7 2-15 3-24 4-9 1-17 1-26-1-8-1-17-4-26-8-9-4-18-10-26-17-9-7-17-16-25-28-7-12-15-26-21-42 22-9 42-14 61-16 19-2 35-1 48 2 13 3 25 9 36 16 11 7 19 15 25 22 6 7 11 15 16 23 10-25 18-52 23-83-2 0-3 1-5 1-3 0-7 1-14 1-6 0-13 0-20 0-6-1-14-2-23-3-9-2-17-4-25-7-8-3-16-7-24-12-8-5-15-12-22-19-6-7-11-16-15-27-4-11-7-23-8-36 13-5 26-9 38-10 12-2 23-2 32 0 9 2 18 5 26 8 8 4 15 9 21 15 6 5 11 11 16 17 5 6 9 12 12 18 3 6 6 11 8 16 2 5 4 9 5 11l1 5c2-23 3-42 3-56-1-1-3-2-6-4-2-2-7-6-14-13-7-7-13-13-18-20-5-7-10-16-15-27-5-11-9-21-10-32-1-11 0-23 4-36 3-14 10-27 20-40 13 5 26 11 36 18 10 7 18 14 24 21 6 8 10 16 14 25 3 8 5 17 6 25 0 9 0 17 0 25-1 7-2 15-4 21-2 7-4 13-6 18-1 5-3 9-4 12l-2 4c0 1 0 6 0 15 0 9 0 15 0 20 0-1 1-3 2-5 2-2 5-6 9-12 5-6 9-12 15-17 5-5 11-10 20-16 8-5 17-9 26-12 9-3 20-5 32-5 12 1 25 3 38 7-1 15-3 29-6 41-4 12-9 22-15 30-5 7-12 14-19 20-8 6-16 10-24 13-8 3-16 5-24 7-8 2-15 2-23 3-7 0-13 0-19-1-6 0-10 0-13-1l-5-1c-5 28-11 55-21 81 1-1 3-3 5-5 2-2 7-6 14-12 7-6 15-11 22-15 8-4 18-8 29-12 11-4 22-6 33-6 11 0 24 2 37 7 14 5 27 12 39 22z"/>
  </symbol>

  <symbol id="icon-tree" viewBox="0 0 512 512">
    <path d="m466 421c0 5-2 9-5 12-4 4-8 6-13 6l-132 0c0 3 1 11 2 25 1 13 1 24 1 31 0 5-2 9-5 12-3 3-8 5-12 5l-92 0c-4 0-9-2-12-5-3-3-5-7-5-12 0-7 0-18 1-31 1-14 2-22 2-25l-132 0c-5 0-9-2-13-6-3-3-5-7-5-12 0-5 2-10 5-13l115-115-65 0c-5 0-10-2-13-6-4-3-6-8-6-13 0-5 2-9 6-13l115-115-57 0c-5 0-9-2-13-5-3-4-5-8-5-13 0-5 2-9 5-13l110-110c4-3 8-5 13-5 5 0 9 2 13 5l110 110c3 4 5 8 5 13 0 5-2 9-5 13-4 3-8 5-13 5l-57 0 115 115c4 4 6 8 6 13 0 5-2 10-6 13-3 4-8 6-13 6l-65 0 115 115c3 3 5 8 5 13z"/>
  </symbol>

  <symbol id="icon-phone" viewBox="0 0 512 512">
    <path d="m384 0l-256 0c-27 0-48 21-48 48l0 416c0 27 21 48 48 48l256 0c26 0 48-22 48-48l0-416c0-27-22-48-48-48z m16 464c0 9-7 16-16 16l-256 0c-9 0-16-7-16-16l0-32l288 0z m0-48l-288 0l0-320l288 0z m0-336l-288 0l0-32c0-9 7-16 16-16l256 0c9 0 16 7 16 16z m-112-24c0 4-4 8-8 8l-48 0c-4 0-8-4-8-8c0-4 4-8 8-8l48 0c4 0 8 4 8 8z m-16 400c0 4-4 8-8 8l-16 0c-4 0-8-4-8-8c0-4 4-8 8-8l16 0c4 0 8 4 8 8z"/>
  </symbol>

  <symbol id="icon-phone-2" viewBox="0 0 512 512">
    <path d="m448 192l-149 0l0 43l149 0l0 170l-149 0c0 24-22 43-22 43l171 0c23 0 43-19 43-43l0-170c0-24-20-43-43-43z m-235-128l-170 0c-24 0-43 19-43 43l0 298c0 24 19 43 43 43l170 0c24 0 43-19 43-43l0-298c0-24-19-43-43-43z m-64 363l-42 0l0-43l42 0z m64-64l-170 0l0-256l170 0z"/>
  </symbol>

  <symbol id="icon-telephone" viewBox="0 0 512 512">
    <path d="m435 360c-1-6-4-10-9-13l-74-43l0 0c-3-2-7-3-10-3c-6 0-12 3-16 7l-22 21c-1 1-4 2-5 3c0 0-25-2-71-48c-46-46-48-71-48-71c0-1 2-4 3-5l18-19c7-6 8-17 5-26l-41-76c-3-6-9-10-15-10c-5 0-9 2-13 5l-50 50c-5 5-9 14-10 20c0 4-9 81 97 186c89 90 159 97 179 97c4 0 6 0 7 0c6-1 15-5 20-10l50-50c4-5 6-10 5-15z"/>
  </symbol>

  <symbol id="icon-dollar" viewBox="0 0 512 512">
    <path d="m278 229l0-51c17 4 33 12 47 24l0 0c1 1 2 1 4 1c1 0 3-1 4-2l0 0l22-31l0 0c1-1 1-2 1-4c0-1 0-3-2-4c-20-19-46-30-76-33l0-30l0 0c0-3-3-6-6-6l-23 0c-4 0-6 3-6 6l0 29c-51 5-81 38-81 75c0 51 42 66 81 76l0 58c-25-5-46-18-59-32c0 0-1 0-1 0c0 0 0-1 0-1l0 0c-1 0-2-1-4-1c-2 0-4 1-5 3l0 0l-21 32l0 0c-1 1-1 2-1 3c0 2 0 4 2 5l0 0c20 21 49 36 89 39l0 28c0 3 2 6 6 6l23 0c3 0 6-3 6-6l0 0l0-28c55-6 82-38 82-79c0-52-43-67-82-77z m-35-8c-16-5-26-11-26-22c0-12 9-21 26-24z m35 116l0-50c16 5 28 11 28 24c0 12-9 23-28 26z"/>
  </symbol>

  <symbol id="icon-usd" viewBox="0 0 512 512">
    <path d="m389 339c0 29-9 54-28 75-19 21-44 34-74 39l0 50c0 3-1 5-3 6-1 2-4 3-6 3l-39 0c-2 0-4-1-6-3-2-2-3-4-3-6l0-50c-13-2-25-5-36-9-12-4-22-8-29-13-8-4-15-9-22-13-6-5-10-9-13-11-2-2-4-4-5-5-3-4-3-8 0-12l29-39c1-1 4-3 7-3 2 0 5 0 6 3l1 0c22 19 45 31 69 36 7 1 15 2 22 2 15 0 29-4 40-12 12-8 18-20 18-35 0-5-2-10-4-15-3-5-6-9-10-12-4-3-9-7-17-11-7-4-14-7-19-9-5-2-12-5-22-9-8-3-14-6-18-7-4-2-10-5-18-8-7-3-13-6-17-9-5-2-10-6-17-10-6-4-11-8-15-12-4-4-8-9-12-14-5-6-8-11-10-17-3-5-5-12-6-19-2-7-3-14-3-22 0-26 9-49 28-69 19-20 43-33 73-38l0-52c0-2 1-4 3-6 2-2 4-3 6-3l39 0c2 0 5 1 6 3 2 1 3 3 3 6l0 50c11 2 21 4 31 7 11 3 19 6 25 10 7 3 13 6 18 10 6 4 10 7 12 9 1 1 3 2 4 4 3 3 4 7 1 10l-23 42c-1 3-4 5-6 5-3 0-6 0-8-2-1-1-2-2-4-4-2-1-6-4-11-7-6-4-11-7-17-9-6-3-13-6-21-8-9-2-17-3-25-3-18 0-33 4-44 12-12 8-17 19-17 32 0 5 1 9 2 14 2 4 5 8 9 11 4 4 7 7 11 10 3 2 9 5 16 9 7 3 13 6 17 7 5 2 11 5 20 8 10 4 18 7 23 9 6 2 13 6 22 10 9 5 16 9 22 12 5 4 11 9 17 15 7 6 12 12 15 18 4 6 7 13 9 22 3 8 4 17 4 27z"/>
  </symbol>

  <symbol id="icon-bath" viewBox="0 0 512 512">
    <path id="XMLID_1150_" d="m512 290.001c0-17.645-14.355-32-32-32h-406v-208c0-16.542 13.458-30 30-30h8c13.603 0 25.112 9.103 28.776 21.535-17.725 4.923-30.776 21.194-30.776 40.465v12c0 5.523 4.478 10 10 10h64c5.523 0 10-4.477 10-10v-12c0-20.006-14.065-36.779-32.823-40.978-4.244-23.299-24.673-41.022-49.177-41.022h-8c-27.57 0-50 22.43-50 50v208h-22c-17.645 0-32 14.355-32 32 0 14.153 9.239 26.181 22 30.391v33.609c0 35.283 14.35 67.278 37.521 90.455-2.732 2.125-5.863 3.723-9.249 4.63-8.257 2.212-15.157 7.507-19.431 14.91-4.274 7.402-5.409 16.026-3.196 24.282 3.826 14.281 16.788 23.722 30.917 23.722 2.733 0 5.512-.353 8.274-1.094 19.842-5.317 37.023-17.105 49.118-33.509 10.846 2.996 22.261 4.605 34.047 4.605h212c11.786 0 23.201-1.609 34.047-4.605 12.094 16.404 29.276 28.192 49.117 33.509 2.764.741 5.54 1.094 8.274 1.094 14.127-.001 27.091-9.442 30.917-23.721 2.213-8.256 1.078-16.88-3.196-24.283-4.273-7.403-11.174-12.698-19.431-14.91-3.386-.908-6.517-2.505-9.249-4.63 23.17-23.177 37.52-55.172 37.52-90.455v-33.609c12.761-4.21 22-16.238 22-30.391zm-338-208v2h-44v-2c0-12.131 9.869-22 22-22s22 9.869 22 22zm-112.34 409.586c-3.1.83-6.331.403-9.106-1.199-2.775-1.603-4.761-4.19-5.591-7.287-.83-3.096-.404-6.33 1.198-9.105 1.603-2.776 4.191-4.761 7.286-5.591 7.317-1.96 13.998-5.695 19.48-10.798 6.63 4.818 13.738 9.014 21.239 12.506-9.078 10.367-20.997 17.854-34.506 21.474zm402.179-17.592c1.603 2.776 2.028 6.01 1.198 9.107-.83 3.096-2.815 5.684-5.591 7.286s-6.009 2.029-9.106 1.199c-13.508-3.62-25.428-11.106-34.505-21.475 7.501-3.492 14.608-7.688 21.239-12.506 5.482 5.103 12.162 8.838 19.479 10.798 3.095.83 5.683 2.815 7.286 5.591zm16.161-171.994h-178.873c-5.523 0-10 4.477-10 10s4.477 10 10 10h168.873v32c0 59.551-48.448 108-108 108h-212c-59.552 0-108-48.449-108-108v-32h169.127c5.522 0 10-4.477 10-10s-4.478-10-10-10h-179.127c-6.617 0-12-5.383-12-12s5.383-12 12-12h448c6.617 0 12 5.383 12 12s-5.383 12-12 12z"/>
    <path id="XMLID_1184_" d="m256 302.001c-2.63 0-5.21 1.07-7.07 2.93s-2.93 4.44-2.93 7.07 1.069 5.21 2.93 7.07c1.86 1.86 4.44 2.93 7.07 2.93s5.21-1.07 7.069-2.93c1.86-1.86 2.931-4.44 2.931-7.07s-1.07-5.21-2.931-7.07c-1.859-1.86-4.439-2.93-7.069-2.93z"/>
    <path id="XMLID_1204_" d="m407 87.001c5.522 0 10-4.477 10-10v-13c0-5.523-4.478-10-10-10s-10 4.477-10 10v13c0 5.523 4.478 10 10 10z"/>
    <path id="XMLID_1205_" d="m407 156.001c5.522 0 10-4.477 10-10v-12.644c0-5.523-4.478-10-10-10s-10 4.477-10 10v12.644c0 5.523 4.478 10 10 10z"/>
    <path id="XMLID_1206_" d="m435 115.001h13c5.522 0 10-4.477 10-10s-4.478-10-10-10h-13c-5.522 0-10 4.477-10 10s4.478 10 10 10z"/>
    <path id="XMLID_1207_" d="m366 115.001h13c5.522 0 10-4.477 10-10s-4.478-10-10-10h-13c-5.522 0-10 4.477-10 10s4.478 10 10 10z"/>
    <path id="XMLID_1209_" d="m256.127 149.001c5.522 0 10-4.477 10-10v-13c0-5.523-4.478-10-10-10-5.523 0-10 4.477-10 10v13c0 5.523 4.478 10 10 10z"/>
    <path id="XMLID_1210_" d="m256.127 218.001c5.522 0 10-4.477 10-10v-12.644c0-5.523-4.478-10-10-10-5.523 0-10 4.477-10 10v12.644c0 5.523 4.478 10 10 10z"/>
    <path id="XMLID_1211_" d="m284.127 177.001h13c5.522 0 10-4.477 10-10s-4.478-10-10-10h-13c-5.523 0-10 4.477-10 10s4.477 10 10 10z"/>
    <path id="XMLID_1257_" d="m215.127 177.001h13c5.522 0 10-4.477 10-10s-4.478-10-10-10h-13c-5.522 0-10 4.477-10 10s4.478 10 10 10z"/>
  </symbol>

</svg>
